<?xml version="1.0" encoding="utf-8" ?>
<svg baseProfile="full" class="WaveDrom" height="405" version="1.1" viewBox="0,0,809,405" width="809" xmlns="http://www.w3.org/2000/svg" xmlns:ev="http://www.w3.org/2001/xml-events" xmlns:xlink="http://www.w3.org/1999/xlink"><defs /><g font-family="Arial" font-size="14" font-weight="normal" text-anchor="middle" transform="translate(4.5,300.5)"><g stroke="black" stroke-linecap="round" stroke-width="1" transform="translate(0,25.0)"><line x1="0" x2="800" y1="0" y2="0" /><line x1="0" x2="0" y1="0" y2="50.0" /><line x1="0" x2="800" y1="50.0" y2="50.0" /><line x1="800.0" x2="800.0" y1="0" y2="50.0" /><line x1="700.0" x2="700.0" y1="0" y2="6.25" /><line x1="700.0" x2="700.0" y1="43.75" y2="50.0" /><line x1="600.0" x2="600.0" y1="0" y2="6.25" /><line x1="600.0" x2="600.0" y1="43.75" y2="50.0" /><line x1="500.0" x2="500.0" y1="0" y2="6.25" /><line x1="500.0" x2="500.0" y1="43.75" y2="50.0" /><line x1="400.0" x2="400.0" y1="0" y2="6.25" /><line x1="400.0" x2="400.0" y1="43.75" y2="50.0" /><line x1="300.0" x2="300.0" y1="0" y2="6.25" /><line x1="300.0" x2="300.0" y1="43.75" y2="50.0" /><line x1="200.0" x2="200.0" y1="0" y2="6.25" /><line x1="200.0" x2="200.0" y1="43.75" y2="50.0" /><line x1="100.0" x2="100.0" y1="0" y2="6.25" /><line x1="100.0" x2="100.0" y1="43.75" y2="50.0" /></g><g text-anchor="middle"><g><g transform="translate(0,25.0)" /><g transform="translate(50.0,20.0)"><text x="700.0"><tspan>0</tspan></text><text x="0.0"><tspan>7</tspan></text></g><g transform="translate(50.0,54.0)"><text x="350.0"><tspan>FIFO</tspan></text></g><g transform="translate(50.0,100)"><text x="350.0"><tspan>rw</tspan></text></g></g></g></g><g font-family="Arial" font-size="14" font-weight="normal" text-anchor="middle" transform="translate(4.5,200.5)"><g stroke="black" stroke-linecap="round" stroke-width="1" transform="translate(0,25.0)"><line x1="0" x2="800" y1="0" y2="0" /><line x1="0" x2="0" y1="0" y2="50.0" /><line x1="0" x2="800" y1="50.0" y2="50.0" /><line x1="800.0" x2="800.0" y1="0" y2="50.0" /><line x1="700.0" x2="700.0" y1="0" y2="6.25" /><line x1="700.0" x2="700.0" y1="43.75" y2="50.0" /><line x1="600.0" x2="600.0" y1="0" y2="6.25" /><line x1="600.0" x2="600.0" y1="43.75" y2="50.0" /><line x1="500.0" x2="500.0" y1="0" y2="6.25" /><line x1="500.0" x2="500.0" y1="43.75" y2="50.0" /><line x1="400.0" x2="400.0" y1="0" y2="6.25" /><line x1="400.0" x2="400.0" y1="43.75" y2="50.0" /><line x1="300.0" x2="300.0" y1="0" y2="6.25" /><line x1="300.0" x2="300.0" y1="43.75" y2="50.0" /><line x1="200.0" x2="200.0" y1="0" y2="6.25" /><line x1="200.0" x2="200.0" y1="43.75" y2="50.0" /><line x1="100.0" x2="100.0" y1="0" y2="6.25" /><line x1="100.0" x2="100.0" y1="43.75" y2="50.0" /></g><g text-anchor="middle"><g><g transform="translate(0,25.0)"><rect height="50.0" style="fill-opacity:0.1" width="800.0" x="0.0" y="0" /></g><g transform="translate(50.0,20.0)"><text x="700.0"><tspan>8</tspan></text><text x="0.0"><tspan>15</tspan></text></g><g transform="translate(50.0,54.0)" /><g transform="translate(50.0,100)" /></g></g></g><g font-family="Arial" font-size="14" font-weight="normal" text-anchor="middle" transform="translate(4.5,100.5)"><g stroke="black" stroke-linecap="round" stroke-width="1" transform="translate(0,25.0)"><line x1="0" x2="800" y1="0" y2="0" /><line x1="0" x2="0" y1="0" y2="50.0" /><line x1="0" x2="800" y1="50.0" y2="50.0" /><line x1="800.0" x2="800.0" y1="0" y2="50.0" /><line x1="700.0" x2="700.0" y1="0" y2="50.0" /><line x1="600.0" x2="600.0" y1="0" y2="50.0" /><line x1="500.0" x2="500.0" y1="0" y2="6.25" /><line x1="500.0" x2="500.0" y1="43.75" y2="50.0" /><line x1="400.0" x2="400.0" y1="0" y2="6.25" /><line x1="400.0" x2="400.0" y1="43.75" y2="50.0" /><line x1="300.0" x2="300.0" y1="0" y2="6.25" /><line x1="300.0" x2="300.0" y1="43.75" y2="50.0" /><line x1="200.0" x2="200.0" y1="0" y2="6.25" /><line x1="200.0" x2="200.0" y1="43.75" y2="50.0" /><line x1="100.0" x2="100.0" y1="0" y2="6.25" /><line x1="100.0" x2="100.0" y1="43.75" y2="50.0" /></g><g text-anchor="middle"><g><g transform="translate(0,25.0)"><rect height="50.0" style="fill-opacity:0.1" width="600.0" x="0.0" y="0" /></g><g transform="translate(50.0,20.0)"><text x="700.0"><tspan>16</tspan></text><text x="600.0"><tspan>17</tspan></text><text x="500.0"><tspan>18</tspan></text><text x="0.0"><tspan>23</tspan></text></g><g transform="translate(50.0,54.0)"><text x="700.0"><tspan>FERR</tspan></text><text x="600.0"><tspan>PERR</tspan></text></g><g transform="translate(50.0,100)"><text x="700.0"><tspan>rolh</tspan></text><text x="600.0"><tspan>rolh</tspan></text></g></g></g></g><g font-family="Arial" font-size="14" font-weight="normal" text-anchor="middle" transform="translate(4.5,0.5)"><g stroke="black" stroke-linecap="round" stroke-width="1" transform="translate(0,25.0)"><line x1="0" x2="800" y1="0" y2="0" /><line x1="0" x2="0" y1="0" y2="50.0" /><line x1="0" x2="800" y1="50.0" y2="50.0" /><line x1="800.0" x2="800.0" y1="0" y2="50.0" /><line x1="700.0" x2="700.0" y1="0" y2="6.25" /><line x1="700.0" x2="700.0" y1="43.75" y2="50.0" /><line x1="600.0" x2="600.0" y1="0" y2="6.25" /><line x1="600.0" x2="600.0" y1="43.75" y2="50.0" /><line x1="500.0" x2="500.0" y1="0" y2="6.25" /><line x1="500.0" x2="500.0" y1="43.75" y2="50.0" /><line x1="400.0" x2="400.0" y1="0" y2="6.25" /><line x1="400.0" x2="400.0" y1="43.75" y2="50.0" /><line x1="300.0" x2="300.0" y1="0" y2="6.25" /><line x1="300.0" x2="300.0" y1="43.75" y2="50.0" /><line x1="200.0" x2="200.0" y1="0" y2="6.25" /><line x1="200.0" x2="200.0" y1="43.75" y2="50.0" /><line x1="100.0" x2="100.0" y1="0" y2="6.25" /><line x1="100.0" x2="100.0" y1="43.75" y2="50.0" /></g><g text-anchor="middle"><g><g transform="translate(0,25.0)"><rect height="50.0" style="fill-opacity:0.1" width="800.0" x="0.0" y="0" /></g><g transform="translate(50.0,20.0)"><text x="700.0"><tspan>24</tspan></text><text x="0.0"><tspan>31</tspan></text></g><g transform="translate(50.0,54.0)" /><g transform="translate(50.0,100)" /></g></g></g></svg>